<mxfile host="app.diagrams.net" modified="2024-01-12T09:51:16.966Z" agent="Mozilla/5.0 (Windows NT 10.0; Win64; x64) AppleWebKit/537.36 (KHTML, like Gecko) Chrome/120.0.0.0 Safari/537.36" etag="YhGrmm_5ph2b7fUgPTAI" version="22.1.18" type="github">
  <diagram id="6a731a19-8d31-9384-78a2-239565b7b9f0" name="Page-1">
    <mxGraphModel dx="1678" dy="868" grid="1" gridSize="10" guides="1" tooltips="1" connect="1" arrows="1" fold="1" page="1" pageScale="1" pageWidth="827" pageHeight="1169" background="none" math="0" shadow="0">
      <root>
        <mxCell id="0" />
        <mxCell id="1" parent="0" />
        <mxCell id="2095" value="" style="rounded=1;whiteSpace=wrap;html=1;strokeColor=none;fillColor=#BAC8D3;fontSize=24;fontColor=#23445D;align=center;opacity=60;" parent="1" vertex="1">
          <mxGeometry x="30" y="20" width="730" height="210" as="geometry" />
        </mxCell>
        <mxCell id="2100" value="" style="shape=mxgraph.cisco.servers.storage_server;html=1;dashed=0;fillColor=#10739E;strokeColor=#ffffff;strokeWidth=2;verticalLabelPosition=bottom;verticalAlign=top;fontFamily=Helvetica;fontSize=36;fontColor=#FFB366" parent="1" vertex="1">
          <mxGeometry x="362" y="90" width="54" height="67" as="geometry" />
        </mxCell>
        <mxCell id="2102" value="" style="shape=mxgraph.cisco.computers_and_peripherals.ibm_mainframe;html=1;dashed=0;fillColor=#10739E;strokeColor=#ffffff;strokeWidth=2;verticalLabelPosition=bottom;verticalAlign=top;fontFamily=Helvetica;fontSize=36;fontColor=#FFB366" parent="1" vertex="1">
          <mxGeometry x="508" y="87" width="50" height="70" as="geometry" />
        </mxCell>
        <mxCell id="2107" value="" style="shape=mxgraph.cisco.switches.workgroup_switch;html=1;dashed=0;fillColor=#10739E;strokeColor=#ffffff;strokeWidth=2;verticalLabelPosition=bottom;verticalAlign=top;fontFamily=Helvetica;fontSize=36;fontColor=#FFB366" parent="1" vertex="1">
          <mxGeometry x="416" y="252" width="101" height="50" as="geometry" />
        </mxCell>
        <mxCell id="2152" value="" style="line;html=1;strokeColor=#23445D;" parent="1" vertex="1">
          <mxGeometry x="53" y="205" width="677" height="10" as="geometry" />
        </mxCell>
        <mxCell id="2154" value="" style="line;html=1;strokeColor=#23445D;" parent="1" vertex="1">
          <mxGeometry x="50" y="340" width="943" height="10" as="geometry" />
        </mxCell>
        <mxCell id="2155" value="" style="edgeStyle=elbowEdgeStyle;elbow=horizontal;endArrow=none;html=1;strokeColor=#23445D;endFill=0;strokeWidth=4;rounded=1" parent="1" target="2102" edge="1">
          <mxGeometry width="100" height="100" relative="1" as="geometry">
            <mxPoint x="533" y="210" as="sourcePoint" />
            <mxPoint x="533" y="170" as="targetPoint" />
          </mxGeometry>
        </mxCell>
        <mxCell id="2159" value="" style="edgeStyle=elbowEdgeStyle;elbow=horizontal;endArrow=none;html=1;strokeColor=#23445D;endFill=0;strokeWidth=4;rounded=1;entryX=0.5;entryY=1;entryDx=0;entryDy=0;entryPerimeter=0;" parent="1" target="2100" edge="1">
          <mxGeometry width="100" height="100" relative="1" as="geometry">
            <mxPoint x="389" y="210" as="sourcePoint" />
            <mxPoint x="266.80555555555554" y="156.94444444444446" as="targetPoint" />
            <Array as="points">
              <mxPoint x="389" y="180" />
            </Array>
          </mxGeometry>
        </mxCell>
        <mxCell id="2160" value="" style="edgeStyle=elbowEdgeStyle;elbow=horizontal;endArrow=none;html=1;strokeColor=#23445D;endFill=0;strokeWidth=4;rounded=1;entryX=0.5;entryY=1;entryDx=0;entryDy=0;entryPerimeter=0;" parent="1" target="chNrVIpnMzZten6UTjGX-2257" edge="1">
          <mxGeometry width="100" height="100" relative="1" as="geometry">
            <mxPoint x="240" y="210" as="sourcePoint" />
            <mxPoint x="199" y="156" as="targetPoint" />
            <Array as="points">
              <mxPoint x="245" y="180" />
            </Array>
          </mxGeometry>
        </mxCell>
        <mxCell id="2161" value="" style="edgeStyle=elbowEdgeStyle;elbow=horizontal;endArrow=none;html=1;strokeColor=#23445D;endFill=0;strokeWidth=4;rounded=1" parent="1" target="2096" edge="1">
          <mxGeometry width="100" height="100" relative="1" as="geometry">
            <mxPoint x="96" y="210" as="sourcePoint" />
            <mxPoint x="96.30555555555554" y="156.25" as="targetPoint" />
          </mxGeometry>
        </mxCell>
        <mxCell id="2162" value="" style="edgeStyle=elbowEdgeStyle;elbow=horizontal;endArrow=none;html=1;strokeColor=#23445D;endFill=0;strokeWidth=4;rounded=1" parent="1" target="2107" edge="1">
          <mxGeometry width="100" height="100" relative="1" as="geometry">
            <mxPoint x="465" y="210" as="sourcePoint" />
            <mxPoint x="465" y="240" as="targetPoint" />
          </mxGeometry>
        </mxCell>
        <mxCell id="2163" value="" style="edgeStyle=elbowEdgeStyle;elbow=horizontal;endArrow=none;html=1;strokeColor=#23445D;endFill=0;strokeWidth=4;rounded=1" parent="1" source="2107" edge="1">
          <mxGeometry width="100" height="100" relative="1" as="geometry">
            <mxPoint x="465.0000000000001" y="303" as="sourcePoint" />
            <mxPoint x="465.2777777777774" y="345.0833333333335" as="targetPoint" />
          </mxGeometry>
        </mxCell>
        <mxCell id="2226" value="&lt;font color=&quot;#23445d&quot; style=&quot;font-size: 18px;&quot;&gt;维修中心&lt;/font&gt;" style="rounded=1;whiteSpace=wrap;html=1;strokeColor=none;fillColor=none;fontSize=18;fontColor=#742B21;align=center;fontStyle=1" parent="1" vertex="1">
          <mxGeometry x="292" y="30" width="225" height="19" as="geometry" />
        </mxCell>
        <mxCell id="chNrVIpnMzZten6UTjGX-2257" value="" style="shape=mxgraph.cisco.servers.www_server;sketch=0;html=1;pointerEvents=1;dashed=0;fillColor=#036897;strokeColor=#ffffff;strokeWidth=2;verticalLabelPosition=bottom;verticalAlign=top;align=center;outlineConnect=0;" vertex="1" parent="1">
          <mxGeometry x="212" y="90" width="66" height="67" as="geometry" />
        </mxCell>
        <mxCell id="chNrVIpnMzZten6UTjGX-2260" value="" style="group;movable=1;resizable=1;rotatable=1;deletable=1;editable=1;locked=0;connectable=1;" vertex="1" connectable="0" parent="1">
          <mxGeometry x="60" y="66" width="83" height="91" as="geometry" />
        </mxCell>
        <mxCell id="2096" value="" style="shape=mxgraph.cisco.computers_and_peripherals.workstation;html=1;dashed=0;fillColor=#10739E;strokeColor=#ffffff;strokeWidth=2;verticalLabelPosition=bottom;verticalAlign=top;fontFamily=Helvetica;fontSize=36;fontColor=#FFB366" parent="chNrVIpnMzZten6UTjGX-2260" vertex="1">
          <mxGeometry y="29" width="83" height="62" as="geometry" />
        </mxCell>
        <mxCell id="chNrVIpnMzZten6UTjGX-2259" value="&lt;b&gt;维护终端&lt;/b&gt;" style="text;html=1;strokeColor=none;fillColor=none;align=center;verticalAlign=middle;whiteSpace=wrap;rounded=0;" vertex="1" parent="chNrVIpnMzZten6UTjGX-2260">
          <mxGeometry x="8" y="-7" width="60" height="30" as="geometry" />
        </mxCell>
        <mxCell id="chNrVIpnMzZten6UTjGX-2261" value="&lt;b&gt;应用服务器&lt;/b&gt;" style="text;html=1;strokeColor=none;fillColor=none;align=center;verticalAlign=middle;whiteSpace=wrap;rounded=0;" vertex="1" parent="1">
          <mxGeometry x="218" y="59" width="69" height="30" as="geometry" />
        </mxCell>
        <mxCell id="chNrVIpnMzZten6UTjGX-2263" value="&lt;b&gt;存储服务器&lt;/b&gt;" style="text;html=1;strokeColor=none;fillColor=none;align=center;verticalAlign=middle;whiteSpace=wrap;rounded=0;" vertex="1" parent="1">
          <mxGeometry x="360" y="58" width="68" height="30" as="geometry" />
        </mxCell>
        <mxCell id="chNrVIpnMzZten6UTjGX-2264" value="&lt;b&gt;接口服务器&lt;/b&gt;" style="text;html=1;strokeColor=none;fillColor=none;align=center;verticalAlign=middle;whiteSpace=wrap;rounded=0;" vertex="1" parent="1">
          <mxGeometry x="505" y="59" width="71" height="30" as="geometry" />
        </mxCell>
        <mxCell id="chNrVIpnMzZten6UTjGX-2266" value="" style="shape=mxgraph.cisco.storage.relational_database;sketch=0;html=1;pointerEvents=1;dashed=0;fillColor=#036897;strokeColor=#ffffff;strokeWidth=2;verticalLabelPosition=bottom;verticalAlign=top;align=center;outlineConnect=0;" vertex="1" parent="1">
          <mxGeometry x="660" y="87" width="51" height="70" as="geometry" />
        </mxCell>
        <mxCell id="chNrVIpnMzZten6UTjGX-2267" value="" style="edgeStyle=elbowEdgeStyle;elbow=horizontal;endArrow=none;html=1;strokeColor=#23445D;endFill=0;strokeWidth=4;rounded=1;exitX=0.936;exitY=0.4;exitDx=0;exitDy=0;exitPerimeter=0;" edge="1" parent="1" source="2152" target="chNrVIpnMzZten6UTjGX-2266">
          <mxGeometry width="100" height="100" relative="1" as="geometry">
            <mxPoint x="685" y="207" as="sourcePoint" />
            <mxPoint x="685" y="154" as="targetPoint" />
          </mxGeometry>
        </mxCell>
        <mxCell id="chNrVIpnMzZten6UTjGX-2268" value="&lt;b&gt;应用数据库&lt;/b&gt;" style="text;html=1;strokeColor=none;fillColor=none;align=center;verticalAlign=middle;whiteSpace=wrap;rounded=0;" vertex="1" parent="1">
          <mxGeometry x="651" y="60" width="71" height="30" as="geometry" />
        </mxCell>
        <mxCell id="chNrVIpnMzZten6UTjGX-2269" value="" style="rounded=1;whiteSpace=wrap;html=1;strokeColor=none;fillColor=#BAC8D3;fontSize=24;fontColor=#23445D;align=center;opacity=60;" vertex="1" parent="1">
          <mxGeometry x="24" y="580" width="730" height="430" as="geometry" />
        </mxCell>
        <mxCell id="chNrVIpnMzZten6UTjGX-2272" value="" style="line;html=1;strokeColor=#23445D;" vertex="1" parent="1">
          <mxGeometry x="47" y="765" width="373" height="10" as="geometry" />
        </mxCell>
        <mxCell id="chNrVIpnMzZten6UTjGX-2274" value="" style="edgeStyle=elbowEdgeStyle;elbow=horizontal;endArrow=none;html=1;strokeColor=#23445D;endFill=0;strokeWidth=4;rounded=1;entryX=0.38;entryY=0.887;entryDx=0;entryDy=0;entryPerimeter=0;" edge="1" parent="1" target="chNrVIpnMzZten6UTjGX-2280">
          <mxGeometry width="100" height="100" relative="1" as="geometry">
            <mxPoint x="383" y="770" as="sourcePoint" />
            <mxPoint x="383" y="717" as="targetPoint" />
            <Array as="points">
              <mxPoint x="383" y="740" />
            </Array>
          </mxGeometry>
        </mxCell>
        <mxCell id="chNrVIpnMzZten6UTjGX-2277" value="&lt;font color=&quot;#23445d&quot; style=&quot;font-size: 18px;&quot;&gt;集中站&lt;/font&gt;" style="rounded=1;whiteSpace=wrap;html=1;strokeColor=none;fillColor=none;fontSize=18;fontColor=#742B21;align=center;fontStyle=1" vertex="1" parent="1">
          <mxGeometry x="286" y="590" width="225" height="19" as="geometry" />
        </mxCell>
        <mxCell id="chNrVIpnMzZten6UTjGX-2279" value="" style="group;movable=1;resizable=1;rotatable=1;deletable=1;editable=1;locked=0;connectable=1;" vertex="1" connectable="0" parent="1">
          <mxGeometry x="480" y="620" width="83" height="91" as="geometry" />
        </mxCell>
        <mxCell id="chNrVIpnMzZten6UTjGX-2280" value="" style="shape=mxgraph.cisco.computers_and_peripherals.workstation;html=1;dashed=0;fillColor=#10739E;strokeColor=#ffffff;strokeWidth=2;verticalLabelPosition=bottom;verticalAlign=top;fontFamily=Helvetica;fontSize=36;fontColor=#FFB366" vertex="1" parent="chNrVIpnMzZten6UTjGX-2279">
          <mxGeometry y="29" width="83" height="62" as="geometry" />
        </mxCell>
        <mxCell id="chNrVIpnMzZten6UTjGX-2281" value="&lt;b&gt;维护终端&lt;/b&gt;" style="text;html=1;strokeColor=none;fillColor=none;align=center;verticalAlign=middle;whiteSpace=wrap;rounded=0;" vertex="1" parent="chNrVIpnMzZten6UTjGX-2279">
          <mxGeometry x="8" y="-7" width="60" height="30" as="geometry" />
        </mxCell>
      </root>
    </mxGraphModel>
  </diagram>
</mxfile>
